<svg width="62" height="62" viewBox="0 0 62 62" fill="none" xmlns="http://www.w3.org/2000/svg">
<circle cx="31" cy="31" r="31" fill="#F9F9F9"/>
<path d="M37.25 26.8999C37.0125 26.8999 36.775 26.8124 36.5875 26.6249L34.0875 24.1249C33.725 23.7624 33.725 23.1624 34.0875 22.7999C34.45 22.4374 35.05 22.4374 35.4125 22.7999L37.25 24.6374L41.5875 20.3124C41.95 19.9499 42.55 19.9499 42.9125 20.3124C43.275 20.6749 43.275 21.2749 42.9125 21.6374L37.9125 26.6374C37.725 26.7999 37.4875 26.8999 37.25 26.8999Z" fill="url(#paint0_linear_5_3747)"/>
<path d="M29.8125 34.6875L27.5 37C27.0125 37.4875 26.2375 37.4875 25.7375 37.0125C25.6 36.875 25.4625 36.75 25.325 36.6125C24.0375 35.3125 22.875 33.95 21.8375 32.525C20.8125 31.1 19.9875 29.675 19.3875 28.2625C18.8 26.8375 18.5 25.475 18.5 24.175C18.5 23.325 18.65 22.5125 18.95 21.7625C19.25 21 19.725 20.3 20.3875 19.675C21.1875 18.8875 22.0625 18.5 22.9875 18.5C23.3375 18.5 23.6875 18.575 24 18.725C24.325 18.875 24.6125 19.1 24.8375 19.425L27.7375 23.5125C27.9625 23.825 28.125 24.1125 28.2375 24.3875C28.35 24.65 28.4125 24.9125 28.4125 25.15C28.4125 25.45 28.325 25.75 28.15 26.0375C27.9875 26.325 27.75 26.625 27.45 26.925L26.5 27.9125C26.3625 28.05 26.3 28.2125 26.3 28.4125C26.3 28.5125 26.3125 28.6 26.3375 28.7C26.375 28.8 26.4125 28.875 26.4375 28.95C26.6625 29.3625 27.05 29.9 27.6 30.55C28.1625 31.2 28.7625 31.8625 29.4125 32.525C29.5375 32.65 29.675 32.775 29.8 32.9C30.3 33.3875 30.3125 34.1875 29.8125 34.6875Z" fill="url(#paint1_linear_5_3747)"/>
<path d="M43.4625 38.9125C43.4625 39.2625 43.4 39.6251 43.275 39.975C43.2375 40.075 43.2 40.175 43.15 40.275C42.9375 40.725 42.6625 41.1501 42.3 41.5501C41.6875 42.225 41.0125 42.7126 40.25 43.0251C40.2375 43.0251 40.225 43.0375 40.2125 43.0375C39.475 43.3375 38.675 43.5 37.8125 43.5C36.5375 43.5 35.175 43.2001 33.7375 42.5876C32.3 41.975 30.8625 41.1501 29.4375 40.1126C28.95 39.7501 28.4625 39.3875 28 39L32.0875 34.9125C32.4375 35.175 32.75 35.375 33.0125 35.5125C33.075 35.5375 33.15 35.575 33.2375 35.6125C33.3375 35.65 33.4375 35.6625 33.55 35.6625C33.7625 35.6625 33.925 35.5875 34.0625 35.45L35.0125 34.5125C35.325 34.2 35.625 33.9625 35.9125 33.8125C36.2 33.6375 36.4875 33.55 36.8 33.55C37.0375 33.55 37.2875 33.6 37.5625 33.7125C37.8375 33.825 38.125 33.9875 38.4375 34.2L42.575 37.1375C42.9 37.3625 43.125 37.625 43.2625 37.9375C43.3875 38.25 43.4625 38.5625 43.4625 38.9125Z" fill="url(#paint2_linear_5_3747)"/>
<defs>
<linearGradient id="paint0_linear_5_3747" x1="45.3751" y1="18.4999" x2="33.5001" y2="25.9999" gradientUnits="userSpaceOnUse">
<stop stop-color="#69AFA9"/>
<stop offset="0.8197" stop-color="#A1D5CF"/>
</linearGradient>
<linearGradient id="paint1_linear_5_3747" x1="5.375" y1="18.5" x2="64.125" y2="59.125" gradientUnits="userSpaceOnUse">
<stop offset="0.198716" stop-color="#FFB23F"/>
<stop offset="1" stop-color="#FAD8A5"/>
</linearGradient>
<linearGradient id="paint2_linear_5_3747" x1="14.7499" y1="33.5" x2="45.9999" y2="41.625" gradientUnits="userSpaceOnUse">
<stop offset="0.365293" stop-color="#FFB23F"/>
<stop offset="1" stop-color="#FAD8A5"/>
</linearGradient>
</defs>
</svg>
